<svg width="52" height="37" viewBox="0 0 52 37" fill="none" xmlns="http://www.w3.org/2000/svg">
<ellipse cx="43.137" cy="30.9002" rx="6.13701" ry="5.90022" fill="#1E2C3C"/>
<path d="M17.1506 36.655C14.9384 36.655 12.9309 36.2383 11.1278 35.405C9.32481 34.5565 7.89299 33.3368 6.83239 31.7459C5.77178 30.1398 5.24148 28.2004 5.24148 25.9277C5.24148 23.9277 5.63542 22.3065 6.4233 21.0641C7.21117 19.8065 8.2642 18.8216 9.58239 18.1095C10.9006 17.3974 12.3551 16.8671 13.946 16.5186C15.5521 16.155 17.1657 15.8671 18.7869 15.655C20.9081 15.3822 22.6278 15.1777 23.946 15.0413C25.2794 14.8898 26.2491 14.6398 26.8551 14.2913C27.4763 13.9429 27.7869 13.3368 27.7869 12.4732L27.7869 12.2913C27.7869 10.0489 27.1733 8.30649 25.946 7.06406C24.7339 5.82164 22.893 5.20043 20.4233 5.20043C17.8627 5.20043 15.8551 5.76103 14.4006 6.88225C12.946 8.00346 11.9233 9.20043 11.3324 10.4732L6.24148 8.65497C7.15057 6.53376 8.36269 4.88225 9.87784 3.70043C11.4081 2.50346 13.0748 1.67012 14.8778 1.20043C16.696 0.71558 18.4839 0.473156 20.2415 0.473156C21.3627 0.473156 22.6506 0.609519 24.1051 0.882244C25.5748 1.13982 26.9915 1.6777 28.3551 2.49588C29.7339 3.31406 30.8778 4.54891 31.7869 6.20043C32.696 7.85194 33.1506 10.0641 33.1506 12.8368L33.1506 35.8368L27.7869 35.8368L27.7869 31.1095L27.5142 31.1095C27.1506 31.8671 26.5445 32.6777 25.696 33.5413C24.8475 34.405 23.7188 35.1398 22.3097 35.7459C20.9006 36.3519 19.1809 36.655 17.1506 36.655ZM17.9688 31.8368C20.09 31.8368 21.8778 31.4201 23.3324 30.5868C24.8021 29.7535 25.9081 28.6777 26.6506 27.3595C27.4081 26.0413 27.7869 24.655 27.7869 23.2004L27.7869 18.2913C27.5597 18.5641 27.0597 18.8141 26.2869 19.0413C25.5294 19.2535 24.6506 19.4429 23.6506 19.6095C22.6657 19.761 21.7036 19.8974 20.7642 20.0186C19.84 20.1247 19.09 20.2156 18.5142 20.2913C17.1203 20.4732 15.8172 20.7686 14.6051 21.1777C13.4081 21.5716 12.4384 22.1701 11.696 22.9732C10.9688 23.761 10.6051 24.8368 10.6051 26.2004C10.6051 28.0641 11.2945 29.4732 12.6733 30.4277C14.0672 31.3671 15.8324 31.8368 17.9688 31.8368Z" fill="#1E2C3C"/>
</svg>
