<svg width="412" height="412" viewBox="0 0 412 412" fill="none" xmlns="http://www.w3.org/2000/svg">
<rect width="412" height="412" rx="50" fill="white"/>
<path d="M123.474 375.474C111.376 375.474 100.397 373.196 90.537 368.638C80.6767 363.998 72.8464 357.328 67.0463 348.628C61.2461 339.845 58.346 329.239 58.346 316.81C58.346 305.872 60.5003 297.006 64.809 290.212C69.1178 283.334 74.8765 277.948 82.0853 274.054C89.2941 270.16 97.2487 267.259 105.949 265.354C114.732 263.365 123.557 261.791 132.423 260.631C144.023 259.139 153.428 258.021 160.636 257.275C167.928 256.446 173.231 255.079 176.546 253.173C179.943 251.268 181.641 247.953 181.641 243.23V242.236C181.641 229.973 178.286 220.444 171.574 213.649C164.945 206.855 154.878 203.457 141.372 203.457C127.368 203.457 116.389 206.523 108.435 212.655C100.48 218.786 94.8872 225.332 91.6556 232.293L63.8147 222.349C68.7863 210.749 75.4151 201.717 83.7011 195.254C92.0699 188.708 101.185 184.151 111.045 181.582C120.988 178.931 130.765 177.605 140.377 177.605C146.509 177.605 153.552 178.351 161.506 179.842C169.544 181.251 177.291 184.192 184.749 188.667C192.289 193.141 198.545 199.894 203.516 208.926C208.488 217.958 210.974 230.055 210.974 245.219V371H181.641V345.148H180.15C178.161 349.291 174.847 353.724 170.207 358.447C165.567 363.17 159.394 367.188 151.688 370.503C143.982 373.817 134.577 375.474 123.474 375.474ZM127.948 349.125C139.549 349.125 149.326 346.846 157.281 342.289C165.318 337.732 171.367 331.849 175.427 324.64C179.57 317.431 181.641 309.849 181.641 301.895V275.048C180.399 276.54 177.664 277.907 173.438 279.15C169.295 280.31 164.489 281.346 159.021 282.257C153.635 283.086 148.373 283.831 143.236 284.494C138.181 285.074 134.08 285.571 130.931 285.986C123.308 286.98 116.182 288.596 109.553 290.833C103.007 292.987 97.7044 296.26 93.6443 300.652C89.667 304.961 87.6784 310.844 87.6784 318.301C87.6784 328.493 91.4485 336.199 98.9887 341.419C106.612 346.556 116.265 349.125 127.948 349.125ZM254.389 372.989C248.258 372.989 242.996 370.793 238.605 366.401C234.213 362.01 232.017 356.748 232.017 350.616C232.017 344.485 234.213 339.223 238.605 334.832C242.996 330.44 248.258 328.244 254.389 328.244C260.521 328.244 265.783 330.44 270.174 334.832C274.566 339.223 276.762 344.485 276.762 350.616C276.762 354.677 275.726 358.405 273.654 361.803C271.666 365.2 268.973 367.934 265.576 370.006C262.261 371.994 258.532 372.989 254.389 372.989Z" fill="black"/>
</svg>
