<svg width="512" height="512" viewBox="0 0 512 512" fill="none" xmlns="http://www.w3.org/2000/svg">
<ellipse cx="256.5" cy="256.037" rx="242.5" ry="238.037" fill="white"/>
<path d="M251.388 49.3091C253.312 45.9758 258.123 45.9758 260.048 49.3091L437.492 356.651C439.416 359.984 437.011 364.151 433.162 364.151H78.2739C74.4249 364.151 72.0193 359.984 73.9438 356.651L251.388 49.3091Z" fill="#2B7FFF"/>
<path d="M408.572 210.097L393.105 157.833C392.772 156.708 391.547 156.11 390.455 156.539L232.418 218.724C232.306 218.768 232.191 218.802 232.073 218.825L76.294 249.528C75.1382 249.756 74.4286 250.928 74.7629 252.058L90.2378 304.348C90.614 305.619 92.1007 306.179 93.2222 305.472L165.892 259.653C166.211 259.451 166.581 259.344 166.959 259.344L249.136 259.344C249.511 259.344 249.879 259.239 250.197 259.04L323.997 212.86C324.316 212.66 324.685 212.555 325.061 212.555L406.652 212.665C407.989 212.667 408.952 211.38 408.572 210.097Z" fill="white"/>
</svg>
